<mxfile host="app.diagrams.net" modified="2024-07-11T06:21:03.980Z" agent="Mozilla/5.0 (Windows NT 10.0; Win64; x64) AppleWebKit/537.36 (KHTML, like Gecko) Chrome/126.0.0.0 Safari/537.36" etag="mTnl3ioUz0J7-ZiH3WS6" version="24.6.4" type="device">
  <diagram name="페이지-1" id="ymnvH0Ic9x8nWDTMg089">
    <mxGraphModel dx="1190" dy="643" grid="1" gridSize="10" guides="1" tooltips="1" connect="1" arrows="1" fold="1" page="1" pageScale="1" pageWidth="827" pageHeight="1169" math="0" shadow="0">
      <root>
        <mxCell id="0" />
        <mxCell id="1" parent="0" />
        <mxCell id="T5JOHlE3MyZlvdzGovW7-27" style="rounded=0;orthogonalLoop=1;jettySize=auto;html=1;entryX=0.5;entryY=0;entryDx=0;entryDy=0;" edge="1" parent="1" source="T5JOHlE3MyZlvdzGovW7-18" target="T5JOHlE3MyZlvdzGovW7-21">
          <mxGeometry relative="1" as="geometry" />
        </mxCell>
        <mxCell id="T5JOHlE3MyZlvdzGovW7-30" style="rounded=0;orthogonalLoop=1;jettySize=auto;html=1;entryX=0.5;entryY=0;entryDx=0;entryDy=0;" edge="1" parent="1" source="T5JOHlE3MyZlvdzGovW7-18" target="T5JOHlE3MyZlvdzGovW7-23">
          <mxGeometry relative="1" as="geometry" />
        </mxCell>
        <mxCell id="T5JOHlE3MyZlvdzGovW7-31" style="rounded=0;orthogonalLoop=1;jettySize=auto;html=1;" edge="1" parent="1" source="T5JOHlE3MyZlvdzGovW7-18" target="T5JOHlE3MyZlvdzGovW7-22">
          <mxGeometry relative="1" as="geometry" />
        </mxCell>
        <mxCell id="T5JOHlE3MyZlvdzGovW7-32" style="rounded=0;orthogonalLoop=1;jettySize=auto;html=1;entryX=0.5;entryY=0;entryDx=0;entryDy=0;" edge="1" parent="1" source="T5JOHlE3MyZlvdzGovW7-18" target="T5JOHlE3MyZlvdzGovW7-24">
          <mxGeometry relative="1" as="geometry" />
        </mxCell>
        <mxCell id="T5JOHlE3MyZlvdzGovW7-37" style="rounded=0;orthogonalLoop=1;jettySize=auto;html=1;" edge="1" parent="1" source="T5JOHlE3MyZlvdzGovW7-18" target="T5JOHlE3MyZlvdzGovW7-20">
          <mxGeometry relative="1" as="geometry" />
        </mxCell>
        <mxCell id="T5JOHlE3MyZlvdzGovW7-38" style="rounded=0;orthogonalLoop=1;jettySize=auto;html=1;" edge="1" parent="1" source="T5JOHlE3MyZlvdzGovW7-18" target="T5JOHlE3MyZlvdzGovW7-19">
          <mxGeometry relative="1" as="geometry" />
        </mxCell>
        <mxCell id="T5JOHlE3MyZlvdzGovW7-18" value="학생정보" style="rounded=1;arcSize=10;whiteSpace=wrap;html=1;align=center;" vertex="1" parent="1">
          <mxGeometry x="364" y="290" width="100" height="40" as="geometry" />
        </mxCell>
        <mxCell id="T5JOHlE3MyZlvdzGovW7-19" value="학번" style="ellipse;whiteSpace=wrap;html=1;align=center;fontStyle=4;" vertex="1" parent="1">
          <mxGeometry x="30" y="460" width="100" height="40" as="geometry" />
        </mxCell>
        <mxCell id="T5JOHlE3MyZlvdzGovW7-20" value="학생이름" style="ellipse;whiteSpace=wrap;html=1;align=center;" vertex="1" parent="1">
          <mxGeometry x="160" y="460" width="100" height="40" as="geometry" />
        </mxCell>
        <mxCell id="T5JOHlE3MyZlvdzGovW7-21" value="학과" style="ellipse;whiteSpace=wrap;html=1;align=center;" vertex="1" parent="1">
          <mxGeometry x="290" y="460" width="100" height="40" as="geometry" />
        </mxCell>
        <mxCell id="T5JOHlE3MyZlvdzGovW7-22" value="전화번호" style="ellipse;whiteSpace=wrap;html=1;align=center;" vertex="1" parent="1">
          <mxGeometry x="530" y="460" width="100" height="40" as="geometry" />
        </mxCell>
        <mxCell id="T5JOHlE3MyZlvdzGovW7-23" value="학년" style="ellipse;whiteSpace=wrap;html=1;align=center;" vertex="1" parent="1">
          <mxGeometry x="413.5" y="460" width="100" height="40" as="geometry" />
        </mxCell>
        <mxCell id="T5JOHlE3MyZlvdzGovW7-24" value="주소" style="ellipse;whiteSpace=wrap;html=1;align=center;" vertex="1" parent="1">
          <mxGeometry x="650" y="460" width="100" height="40" as="geometry" />
        </mxCell>
      </root>
    </mxGraphModel>
  </diagram>
</mxfile>
